<svg width="354" height="195" viewBox="0 0 354 195" xmlns="http://www.w3.org/2000/svg"><g fill="none" fill-rule="evenodd"><path d="M186 54h63v63h-63zm-81 0h63v63h-63zm-81 0h63v63H24zm243 0h63v63h-63z"/><path d="M21 120h69V51H21v69zm3-66h63v63H24V54zm78 66h69V51h-69v69zm3-66h63v63h-63V54zm78 66h69V51h-69v69zm3-66h63v63h-63V54zm78-3v69h69V51h-69zm66 66h-63V54h63v63zM21 129h60v3H21zm0 12h39v3H21zm81-12h60v3h-60zm0 12h39v3h-39zm81-12h63v3h-63zm0 12h42v3h-42zm81-12h60v3h-60zm0 12h42v3h-42z" fill="#666"/></g></svg>