<svg width="354" height="195" viewBox="0 0 354 195" xmlns="http://www.w3.org/2000/svg"><g fill="none" fill-rule="evenodd"><path d="M132 21h90v66h-90zm0 87h90v66h-90zM21 21h90v66H21zm0 87h90v66H21zm222 0h90v66h-90zm0-87h90v66h-90z"/><path d="M18 90h96V18H18v72zm3-69h90v66H21V21zm108 69h96V18h-96v72zm3-69h90v66h-90V21zm108-3v72h96V18h-96zm93 69h-90V21h90v66zM18 177h96v-72H18v72zm3-69h90v66H21v-66zm108 69h96v-72h-96v72zm3-69h90v66h-90v-66zm108 69h96v-72h-96v72zm3-69h90v66h-90v-66z" fill="#666"/></g></svg>