<svg width="355" height="195" viewBox="0 0 355 195" xmlns="http://www.w3.org/2000/svg"><g fill="none" fill-rule="evenodd"><path d="M241 48v-3H115v3h126zm-24 12v-3h-81v3h81z" fill="#666"/><path id="Rectangle-path" fill="#666" d="M136 24h84v12h-84z"/><path d="M187 81h63v63h-63zm-81 0h63v63h-63zm-81 0h63v63H25zm243 0h63v63h-63z"/><path d="M22 147h69V78H22v69zm3-66h63v63H25V81zm78 66h69V78h-69v69zm3-66h63v63h-63V81zm78 66h69V78h-69v69zm3-66h63v63h-63V81zm78-3v69h69V78h-69zm66 66h-63V81h63v63zM22 156h60v3H22zm0 12h39v3H22zm81-12h60v3h-60zm0 12h39v3h-39zm81-12h63v3h-63zm0 12h42v3h-42zm81-12h60v3h-60zm0 12h42v3h-42z" fill="#666"/></g></svg>