<svg width="354" height="195" viewBox="0 0 354 195" xmlns="http://www.w3.org/2000/svg">
    <g fill="none" fill-rule="evenodd">
        <path d="M179 74.5c-12.9 0-23.4 10.5-23.4 23.4 0 12.9 10.5 23.4 23.4 23.4 12.9 0 23.4-10.5 23.4-23.4 0-12.9-10.5-23.4-23.4-23.4zm0 38.4c-8.1 0-15-6.6-15-15 0-8.1 6.6-15 15-15s15 6.6 15 15c0 8.1-6.9 15-15 15zM230 70c0-.6-.3-.9-.9-.9h-16.2c-.6 0-.9.3-.9.9v10.2c0 .6.3.9.9.9h16.2c.6 0 .9-.3.9-.9V70zm-51 15.9c-6.6 0-12 5.4-12 12s5.4 12 12 12 12-5.4 12-12-5.4-12-12-12zm63-24.3c0-.9-.6-1.5-1.5-1.5h-126c-.9 0-1.5.6-1.5 1.5v71.7c0 .9.6 1.5 1.5 1.5h125.7c.9 0 1.5-.6 1.5-1.5V61.6h.3zm-63 62.7c-14.7 0-26.4-12-26.4-26.4 0-14.4 12-26.4 26.4-26.4 14.4 0 26.4 12 26.4 26.4 0 14.4-11.7 26.4-26.4 26.4zm54-44.1c0 2.1-1.8 3.9-3.9 3.9h-16.2c-2.1 0-3.9-1.8-3.9-3.9V70c0-2.1 1.8-3.9 3.9-3.9h16.2c2.1 0 3.9 1.8 3.9 3.9v10.2z"/>
        <path d="M179 82.9c-8.1 0-15 6.6-15 15 0 8.1 6.6 15 15 15s15-6.6 15-15c0-8.1-6.9-15-15-15zm0 27c-6.6 0-12-5.4-12-12s5.4-12 12-12 12 5.4 12 12-5.4 12-12 12zm0-38.4c-14.7 0-26.4 12-26.4 26.4 0 14.4 12 26.4 26.4 26.4 14.4 0 26.4-12 26.4-26.4 0-14.4-11.7-26.4-26.4-26.4zm0 49.8c-12.9 0-23.4-10.5-23.4-23.4 0-12.9 10.5-23.4 23.4-23.4 12.9 0 23.4 10.5 23.4 23.4 0 12.9-10.5 23.4-23.4 23.4zm66-59.7c0-2.4-2.1-4.5-4.5-4.5h-126c-2.4 0-4.5 2.1-4.5 4.5v71.7c0 2.4 2.1 4.5 4.5 4.5h125.7c2.4 0 4.5-2.1 4.5-4.5V61.6h.3zm-3 72c0 .9-.6 1.5-1.5 1.5h-126c-.9 0-1.5-.6-1.5-1.5v-72c0-.9.6-1.5 1.5-1.5h125.7c.9 0 1.5.6 1.5 1.5v72h.3zM233 70c0-2.1-1.8-3.9-3.9-3.9h-16.2c-2.1 0-3.9 1.8-3.9 3.9v10.2c0 2.1 1.8 3.9 3.9 3.9h16.2c2.1 0 3.9-1.8 3.9-3.9V70zm-3 10.2c0 .6-.3.9-.9.9h-16.2c-.6 0-.9-.3-.9-.9V70c0-.6.3-.9.9-.9h16.2c.6 0 .9.3.9.9v10.2z" fill="#666"/>
        <text x="50" y="50" font-family="Verdana"  font-size="20" fill="black">Double Click to Change Image</text>
    </g>
</svg>