<svg id="svg" version="1.1" xmlns="http://www.w3.org/2000/svg" xmlns:xlink="http://www.w3.org/1999/xlink" width="400" height="12.238325281803544" viewBox="0, 0, 400,12.238325281803544"><g id="svgg"><path id="path0" d="M0.933 0.583 C 0.805 0.700,0.764 2.465,0.798 6.458 L 0.846 12.167 199.840 12.167 L 398.833 12.167 398.831 6.542 C 398.829 3.448,398.769 0.823,398.696 0.709 C 398.525 0.440,1.229 0.315,0.933 0.583 M391.646 4.271 C 392.811 4.504,392.031 4.667,389.750 4.667 C 388.365 4.667,387.333 4.600,387.333 4.511 C 387.333 4.226,390.532 4.048,391.646 4.271 M5.557 5.614 C 6.069 6.460,6.173 6.451,6.320 5.545 C 6.554 4.106,7.000 4.663,7.000 6.395 C 7.000 8.514,6.527 8.592,5.356 6.667 L 5.001 6.083 5.001 6.964 C 5.000 7.603,4.930 7.871,4.743 7.942 C 4.345 8.095,4.284 7.932,4.201 6.501 C 4.086 4.508,4.662 4.131,5.557 5.614 M30.131 6.292 L 30.083 7.917 29.293 7.967 C 28.858 7.995,28.371 7.944,28.210 7.854 C 27.999 7.736,27.838 7.761,27.636 7.945 C 27.247 8.297,27.000 8.088,27.000 7.407 C 27.000 7.091,26.925 6.833,26.833 6.833 C 26.742 6.833,26.610 6.830,26.542 6.827 C 26.473 6.823,26.379 7.066,26.333 7.367 C 26.223 8.088,25.726 8.207,25.558 7.553 L 25.437 7.083 25.336 7.500 C 25.206 8.035,23.617 8.223,23.267 7.745 C 23.083 7.494,23.047 7.493,22.846 7.735 C 22.724 7.882,22.374 8.000,22.063 8.000 C 21.549 8.000,21.500 8.043,21.500 8.500 C 21.500 9.122,21.081 9.178,20.930 8.576 C 20.871 8.343,20.694 8.107,20.537 8.051 C 20.379 7.995,20.128 7.845,19.979 7.717 C 19.748 7.520,19.695 7.520,19.619 7.717 C 19.438 8.188,17.056 8.074,16.731 7.578 C 16.423 7.107,16.506 6.038,16.869 5.808 C 17.245 5.569,18.335 5.645,18.440 5.917 C 18.564 6.240,18.833 6.240,18.833 5.917 C 18.833 5.592,19.233 5.595,19.503 5.921 C 19.690 6.146,19.746 6.147,19.989 5.927 C 20.364 5.588,22.439 5.598,22.972 5.942 C 23.321 6.166,23.392 6.165,23.652 5.930 C 24.141 5.488,25.139 5.583,25.265 6.083 C 25.322 6.313,25.436 6.500,25.518 6.500 C 25.600 6.500,25.667 6.313,25.667 6.083 C 25.667 5.476,27.397 5.438,27.567 6.042 C 27.664 6.388,27.689 6.395,27.891 6.131 C 28.012 5.975,28.423 5.796,28.805 5.735 C 29.433 5.635,29.500 5.578,29.500 5.145 C 29.500 4.775,29.577 4.667,29.839 4.667 C 30.161 4.667,30.176 4.753,30.131 6.292 M9.140 5.874 C 9.305 6.038,9.376 6.033,9.490 5.849 C 9.694 5.519,10.141 5.745,10.353 6.287 L 10.534 6.750 10.692 6.338 C 10.950 5.664,12.928 5.328,13.467 5.867 C 13.622 6.022,13.711 6.022,13.867 5.867 C 14.109 5.625,15.106 5.601,15.250 5.833 C 15.307 5.925,15.240 6.000,15.101 6.000 C 14.918 6.000,14.819 6.269,14.737 7.000 C 14.624 7.994,14.439 8.205,14.033 7.800 C 13.878 7.644,13.789 7.644,13.633 7.800 C 13.246 8.188,12.224 8.042,11.831 7.543 L 11.472 7.086 11.139 7.543 C 10.639 8.229,10.046 8.165,9.904 7.409 C 9.775 6.718,9.454 6.730,9.333 7.430 C 9.133 8.584,7.333 8.112,7.333 6.906 C 7.333 5.875,8.484 5.218,9.140 5.874 M392.167 6.147 C 392.167 6.481,389.451 6.640,387.958 6.393 C 386.637 6.175,387.433 6.000,389.750 6.000 C 391.079 6.000,392.167 6.066,392.167 6.147 M21.875 6.542 C 21.980 6.857,22.500 6.902,22.500 6.596 C 22.500 6.441,22.358 6.333,22.153 6.333 C 21.949 6.333,21.834 6.419,21.875 6.542 M28.697 6.820 C 28.726 7.134,28.844 7.422,28.958 7.459 C 29.248 7.555,29.211 6.988,28.900 6.583 C 28.657 6.266,28.647 6.277,28.697 6.820 M391.906 7.816 C 392.064 8.071,391.529 8.167,389.945 8.165 C 388.194 8.163,387.133 8.023,387.263 7.812 C 387.382 7.620,391.787 7.623,391.906 7.816 " stroke="none" fill="#25aa44" fill-rule="evenodd"></path><path id="path1" d="M387.333 4.500 C 387.333 4.603,388.253 4.667,389.760 4.667 C 391.335 4.667,392.150 4.608,392.083 4.500 C 392.023 4.402,391.026 4.333,389.657 4.333 C 388.219 4.333,387.333 4.397,387.333 4.500 M29.636 5.198 C 29.590 5.680,29.522 5.752,29.096 5.767 C 27.494 5.824,27.655 7.833,29.262 7.833 L 30.179 7.833 30.131 6.305 C 30.083 4.766,29.749 4.020,29.636 5.198 M4.461 4.958 C 4.428 5.027,4.415 5.346,4.431 5.667 C 4.447 5.987,4.470 6.606,4.480 7.042 C 4.513 8.357,4.999 8.125,5.003 6.792 L 5.007 5.750 5.674 6.792 C 6.686 8.371,7.028 8.271,6.965 6.416 C 6.911 4.828,6.611 4.480,6.533 5.915 C 6.471 7.069,6.392 7.062,5.624 5.833 C 5.063 4.936,4.626 4.607,4.461 4.958 M12.170 5.950 C 11.349 6.524,11.827 7.833,12.857 7.833 C 13.681 7.833,13.846 7.535,13.058 7.469 C 12.176 7.394,12.116 7.000,12.986 7.000 C 13.582 7.000,13.666 6.953,13.664 6.625 C 13.659 5.874,12.820 5.495,12.170 5.950 M17.377 5.859 C 16.761 6.030,16.522 6.604,16.771 7.315 C 16.930 7.771,18.500 8.099,18.500 7.676 C 18.500 7.579,18.284 7.500,18.020 7.500 C 17.757 7.500,17.447 7.388,17.333 7.250 C 17.154 7.034,17.232 7.000,17.907 7.000 C 18.654 7.000,18.686 6.980,18.636 6.561 C 18.563 5.952,18.057 5.670,17.377 5.859 M21.835 5.833 C 21.722 5.902,21.488 5.922,21.315 5.877 C 21.022 5.800,21.000 5.908,21.000 7.397 C 21.000 8.711,21.045 9.000,21.250 9.000 C 21.425 9.000,21.500 8.824,21.500 8.417 C 21.500 7.862,21.528 7.833,22.079 7.833 C 22.853 7.833,23.282 7.234,23.061 6.464 C 22.905 5.918,22.246 5.579,21.835 5.833 M7.700 6.033 C 7.021 6.712,7.592 7.833,8.617 7.833 C 9.490 7.833,9.574 7.540,8.721 7.468 C 7.839 7.394,7.785 7.000,8.658 7.000 C 9.421 7.000,9.639 6.738,9.340 6.180 C 9.129 5.784,8.046 5.688,7.700 6.033 M9.743 6.282 C 10.174 7.997,10.811 8.353,11.168 7.079 C 11.284 6.664,11.444 6.285,11.523 6.236 C 11.753 6.093,11.689 5.833,11.423 5.833 C 11.289 5.833,11.037 6.152,10.863 6.542 L 10.548 7.250 10.351 6.542 C 10.125 5.728,9.542 5.479,9.743 6.282 M14.167 6.833 C 14.167 7.611,14.222 7.833,14.417 7.833 C 14.599 7.833,14.667 7.642,14.669 7.125 C 14.672 6.357,14.780 6.102,15.167 5.955 C 15.304 5.902,15.135 5.854,14.792 5.846 L 14.167 5.833 14.167 6.833 M19.131 6.326 C 19.399 6.791,19.398 6.846,19.114 7.326 C 18.785 7.884,19.008 8.029,19.505 7.579 C 19.756 7.351,19.807 7.351,19.997 7.579 C 20.411 8.079,20.717 7.887,20.390 7.333 C 20.107 6.855,20.107 6.812,20.390 6.333 C 20.642 5.907,20.648 5.833,20.434 5.833 C 20.296 5.833,20.111 5.963,20.022 6.122 C 19.869 6.395,19.844 6.395,19.542 6.122 C 19.033 5.661,18.813 5.771,19.131 6.326 M23.667 6.079 C 23.667 6.263,23.792 6.300,24.167 6.225 C 24.558 6.147,24.667 6.184,24.667 6.396 C 24.667 6.571,24.524 6.667,24.262 6.667 C 23.926 6.667,23.333 7.038,23.333 7.248 C 23.333 8.108,25.245 8.130,25.303 7.271 C 25.373 6.239,25.100 5.833,24.337 5.833 C 23.857 5.833,23.667 5.903,23.667 6.079 M25.800 5.958 C 25.649 6.311,25.772 7.727,25.958 7.791 C 26.102 7.839,26.167 7.656,26.167 7.201 C 26.167 5.879,27.115 5.801,27.199 7.116 C 27.260 8.077,27.562 8.181,27.637 7.266 C 27.737 6.037,27.600 5.833,26.673 5.833 C 26.222 5.833,25.829 5.890,25.800 5.958 M387.333 6.167 C 387.333 6.270,388.253 6.333,389.760 6.333 C 391.335 6.333,392.150 6.275,392.083 6.167 C 392.023 6.068,391.026 6.000,389.657 6.000 C 388.219 6.000,387.333 6.064,387.333 6.167 M8.833 6.417 C 8.833 6.682,8.248 6.766,8.098 6.523 C 7.975 6.324,8.165 6.167,8.528 6.167 C 8.696 6.167,8.833 6.279,8.833 6.417 M13.167 6.417 C 13.167 6.682,12.581 6.766,12.431 6.523 C 12.308 6.324,12.498 6.167,12.861 6.167 C 13.029 6.167,13.167 6.279,13.167 6.417 M18.083 6.417 C 18.083 6.508,17.915 6.607,17.708 6.637 C 17.450 6.673,17.333 6.605,17.333 6.417 C 17.333 6.229,17.450 6.160,17.708 6.197 C 17.915 6.226,18.083 6.325,18.083 6.417 M22.565 6.430 C 22.755 6.925,22.492 7.500,22.076 7.500 C 21.643 7.500,21.414 7.034,21.583 6.500 C 21.711 6.096,22.418 6.046,22.565 6.430 M29.607 6.417 C 29.768 6.839,29.518 7.500,29.197 7.500 C 28.828 7.500,28.500 7.186,28.500 6.833 C 28.500 6.243,29.409 5.901,29.607 6.417 M24.667 7.250 C 24.667 7.406,24.509 7.500,24.250 7.500 C 23.845 7.500,23.718 7.338,23.944 7.111 C 24.154 6.901,24.667 7.000,24.667 7.250 M387.333 7.875 C 387.333 7.944,388.396 8.000,389.694 8.000 C 390.993 8.000,392.016 7.961,391.968 7.913 C 391.829 7.773,387.333 7.737,387.333 7.875 " stroke="none" fill="#baf0c6" fill-rule="evenodd"></path><path id="path2" d="M0.667 0.343 C 0.667 0.532,0.735 0.644,0.818 0.593 C 1.165 0.378,398.560 0.494,398.696 0.709 C 398.769 0.823,398.829 3.448,398.831 6.542 C 398.832 10.179,398.892 12.167,399.000 12.167 C 399.108 12.167,399.167 10.028,399.167 6.083 L 399.167 0.000 199.917 0.000 L 0.667 0.000 0.667 0.343 M0.741 6.667 C 0.741 9.738,0.764 10.994,0.791 9.458 C 0.819 7.923,0.819 5.410,0.791 3.875 C 0.764 2.340,0.741 3.596,0.741 6.667 M388.958 4.290 C 389.440 4.323,390.227 4.323,390.708 4.290 C 391.190 4.256,390.796 4.228,389.833 4.228 C 388.871 4.228,388.477 4.256,388.958 4.290 M4.367 4.867 C 3.938 5.296,4.179 8.002,4.646 7.997 C 4.831 7.996,4.854 7.955,4.719 7.869 C 4.464 7.707,4.326 5.074,4.561 4.839 C 4.656 4.744,4.696 4.667,4.650 4.667 C 4.604 4.667,4.477 4.757,4.367 4.867 M29.523 5.113 C 29.508 5.464,29.402 5.668,29.208 5.718 C 28.935 5.790,28.935 5.796,29.214 5.814 C 29.564 5.837,29.722 5.509,29.619 4.970 C 29.562 4.669,29.540 4.700,29.523 5.113 M6.444 4.944 C 6.383 5.006,6.333 5.224,6.333 5.431 C 6.333 5.965,6.159 6.348,5.970 6.232 C 5.881 6.177,5.907 6.290,6.028 6.483 C 6.371 7.032,6.466 6.908,6.527 5.833 C 6.558 5.283,6.577 4.833,6.569 4.833 C 6.562 4.833,6.506 4.883,6.444 4.944 M8.208 5.782 C 8.369 5.823,8.631 5.823,8.792 5.782 C 8.952 5.740,8.821 5.705,8.500 5.705 C 8.179 5.705,8.048 5.740,8.208 5.782 M9.476 5.875 C 9.463 5.990,9.445 6.271,9.435 6.500 C 9.419 6.868,9.333 6.923,8.708 6.968 C 8.012 7.018,7.813 7.198,8.192 7.433 C 8.312 7.506,8.340 7.478,8.266 7.359 C 8.201 7.253,8.226 7.167,8.323 7.167 C 8.421 7.167,8.500 7.242,8.500 7.333 C 8.500 7.660,9.292 7.511,9.382 7.167 C 9.518 6.647,9.785 6.774,9.906 7.417 C 9.999 7.916,10.080 7.998,10.466 7.989 C 10.887 7.980,10.893 7.969,10.559 7.835 C 10.075 7.639,9.515 6.032,9.855 5.816 C 10.035 5.703,10.021 5.671,9.792 5.669 C 9.631 5.668,9.489 5.760,9.476 5.875 M10.929 5.929 C 10.785 6.073,10.667 6.302,10.667 6.438 C 10.667 6.575,10.592 6.640,10.500 6.583 C 10.298 6.458,10.286 6.668,10.479 6.972 C 10.579 7.130,10.698 6.998,10.892 6.513 C 11.042 6.139,11.277 5.833,11.415 5.833 C 11.722 5.833,11.722 5.834,11.434 6.433 C 11.029 7.274,10.908 7.825,11.219 7.418 C 11.468 7.091,11.477 7.092,11.831 7.543 C 12.221 8.038,13.245 8.189,13.626 7.807 C 13.772 7.661,13.880 7.665,14.071 7.823 C 14.209 7.938,14.418 7.993,14.536 7.946 C 14.671 7.892,14.642 7.855,14.458 7.846 C 14.214 7.835,14.167 7.670,14.167 6.833 L 14.167 5.833 14.708 5.808 L 15.250 5.783 14.765 5.711 C 14.009 5.599,13.547 5.926,13.633 6.512 C 13.702 6.985,13.684 7.000,13.005 7.000 C 12.119 7.000,12.164 7.393,13.058 7.469 C 13.846 7.535,13.681 7.833,12.857 7.833 C 11.800 7.833,11.351 6.523,12.204 5.926 C 12.564 5.673,12.556 5.667,11.882 5.667 C 11.476 5.667,11.083 5.775,10.929 5.929 M16.869 5.808 C 16.506 6.038,16.423 7.107,16.731 7.578 C 17.057 8.076,19.380 8.184,19.643 7.714 C 19.755 7.515,19.808 7.519,19.991 7.739 C 20.110 7.883,20.307 8.000,20.429 8.000 C 20.551 8.000,20.727 8.131,20.820 8.292 C 20.945 8.507,20.991 8.218,20.995 7.189 C 21.000 5.905,21.025 5.801,21.315 5.877 C 21.488 5.922,21.717 5.905,21.823 5.840 C 21.929 5.774,21.627 5.706,21.151 5.689 C 20.567 5.669,20.192 5.743,20.000 5.917 C 19.744 6.148,19.692 6.149,19.503 5.921 C 19.387 5.781,19.170 5.673,19.021 5.680 C 18.794 5.691,18.791 5.708,19.000 5.785 C 19.137 5.835,19.387 5.997,19.555 6.143 C 19.836 6.388,19.874 6.386,20.022 6.122 C 20.111 5.963,20.296 5.833,20.434 5.833 C 20.648 5.833,20.642 5.907,20.390 6.333 C 20.107 6.812,20.107 6.855,20.390 7.333 C 20.716 7.885,20.490 8.026,19.995 7.579 C 19.744 7.351,19.693 7.351,19.503 7.579 C 19.092 8.074,18.781 7.889,19.105 7.342 C 19.345 6.936,19.361 6.776,19.197 6.416 C 18.965 5.908,18.667 6.008,18.667 6.593 C 18.667 6.966,18.602 7.000,17.896 7.000 C 17.230 7.000,17.154 7.034,17.333 7.250 C 17.447 7.388,17.757 7.500,18.020 7.500 C 18.284 7.500,18.500 7.579,18.500 7.676 C 18.500 8.099,16.930 7.771,16.771 7.315 C 16.523 6.606,16.762 6.030,17.377 5.853 C 17.853 5.715,17.867 5.695,17.500 5.684 C 17.271 5.677,16.987 5.733,16.869 5.808 M24.408 5.815 C 25.051 5.914,25.074 5.941,25.376 6.969 C 25.727 8.165,26.183 8.354,26.333 7.367 C 26.379 7.066,26.473 6.823,26.542 6.827 C 26.610 6.830,26.742 6.833,26.833 6.833 C 26.925 6.833,27.000 7.091,27.000 7.407 C 27.000 8.090,27.247 8.296,27.639 7.941 C 27.833 7.766,28.003 7.733,28.170 7.839 C 28.306 7.925,28.792 7.984,29.250 7.970 L 30.083 7.946 29.170 7.848 C 28.053 7.728,27.709 7.184,28.205 6.320 C 28.413 5.957,28.430 5.833,28.270 5.833 C 27.969 5.833,27.684 6.465,27.629 7.250 C 27.567 8.149,27.263 8.026,27.199 7.077 C 27.113 5.795,26.167 5.908,26.167 7.201 C 26.167 7.656,26.102 7.839,25.958 7.789 C 25.825 7.743,25.758 7.422,25.773 6.900 C 25.786 6.451,25.761 6.177,25.717 6.292 C 25.590 6.629,25.377 6.531,25.265 6.083 C 25.173 5.716,25.077 5.669,24.455 5.690 L 23.750 5.714 24.408 5.815 M25.667 5.796 C 25.667 5.867,25.985 5.901,26.375 5.871 C 27.543 5.780,27.642 5.707,26.625 5.686 C 26.098 5.675,25.667 5.725,25.667 5.796 M5.002 5.902 C 4.999 6.154,5.856 7.533,5.954 7.435 C 6.005 7.384,5.811 6.985,5.525 6.547 C 5.238 6.108,5.003 5.818,5.002 5.902 M7.533 6.033 C 6.810 6.756,7.431 8.011,8.492 7.972 L 9.250 7.944 8.585 7.876 C 7.563 7.772,7.043 6.690,7.700 6.033 C 7.810 5.923,7.862 5.833,7.817 5.833 C 7.771 5.833,7.643 5.923,7.533 6.033 M23.038 6.398 C 23.295 7.235,22.893 7.823,22.038 7.860 L 21.417 7.887 21.974 7.955 C 22.343 8.000,22.637 7.927,22.845 7.739 C 23.134 7.478,23.168 7.477,23.264 7.727 C 23.341 7.926,23.557 7.993,24.059 7.973 C 24.734 7.947,24.736 7.945,24.168 7.876 C 23.066 7.743,23.149 6.667,24.262 6.667 C 24.524 6.667,24.667 6.571,24.667 6.396 C 24.667 6.184,24.558 6.147,24.167 6.225 C 23.869 6.285,23.667 6.255,23.667 6.153 C 23.667 6.058,23.588 6.029,23.493 6.088 C 23.397 6.147,23.215 6.109,23.089 6.004 C 22.895 5.844,22.887 5.906,23.038 6.398 M8.116 6.273 C 7.942 6.447,8.162 6.667,8.510 6.667 C 8.688 6.667,8.833 6.554,8.833 6.417 C 8.833 6.169,8.322 6.067,8.116 6.273 M12.833 6.351 C 12.833 6.453,12.717 6.491,12.575 6.436 C 12.426 6.379,12.359 6.407,12.418 6.502 C 12.578 6.761,13.167 6.694,13.167 6.417 C 13.167 6.279,13.092 6.167,13.000 6.167 C 12.908 6.167,12.833 6.250,12.833 6.351 M17.333 6.417 C 17.333 6.605,17.450 6.673,17.708 6.637 C 17.915 6.607,18.083 6.508,18.083 6.417 C 18.083 6.325,17.915 6.226,17.708 6.197 C 17.450 6.160,17.333 6.229,17.333 6.417 M21.601 6.430 C 21.438 6.855,21.474 7.299,21.648 7.024 C 21.759 6.850,21.821 6.845,21.917 7.001 C 21.987 7.114,21.941 7.268,21.813 7.349 C 21.650 7.453,21.716 7.496,22.042 7.497 C 22.294 7.499,22.501 7.444,22.502 7.375 C 22.504 7.306,22.548 7.063,22.600 6.833 C 22.669 6.531,22.651 6.480,22.531 6.649 C 22.359 6.893,21.833 6.793,21.833 6.517 C 21.833 6.429,22.002 6.324,22.208 6.284 C 22.543 6.220,22.535 6.210,22.143 6.189 C 21.879 6.176,21.662 6.272,21.601 6.430 M28.833 6.407 C 28.833 6.539,28.908 6.693,29.000 6.750 C 29.092 6.807,29.167 6.999,29.167 7.177 C 29.167 7.354,29.240 7.500,29.330 7.500 C 29.540 7.500,29.732 6.745,29.607 6.417 C 29.484 6.097,28.833 6.088,28.833 6.407 M389.048 6.457 C 389.578 6.490,390.403 6.490,390.881 6.456 C 391.359 6.422,390.925 6.395,389.917 6.396 C 388.908 6.396,388.517 6.424,389.048 6.457 M23.944 7.111 C 23.718 7.338,23.845 7.500,24.250 7.500 C 24.509 7.500,24.667 7.406,24.667 7.250 C 24.667 7.000,24.154 6.901,23.944 7.111 M6.400 7.971 C 6.589 8.160,6.716 8.184,6.844 8.056 C 6.972 7.928,6.897 7.852,6.579 7.792 C 6.174 7.714,6.158 7.730,6.400 7.971 M389.048 7.790 C 389.578 7.823,390.403 7.823,390.881 7.789 C 391.359 7.756,390.925 7.729,389.917 7.729 C 388.908 7.729,388.517 7.757,389.048 7.790 M388.875 8.123 C 389.402 8.156,390.265 8.156,390.792 8.123 C 391.319 8.090,390.887 8.063,389.833 8.063 C 388.779 8.063,388.348 8.090,388.875 8.123 " stroke="none" fill="#2f9b7c" fill-rule="evenodd"></path><path id="path3" d="M399.167 6.083 L 399.167 12.167 399.583 12.167 L 400.000 12.167 400.000 6.083 L 400.000 0.000 399.583 0.000 L 399.167 0.000 399.167 6.083 " stroke="none" fill="#167cae" fill-rule="evenodd"></path><path id="path4" d="M0.000 6.154 C 0.000 12.068,0.005 12.167,0.335 12.167 C 0.825 12.167,0.781 0.293,0.292 0.198 C 0.018 0.146,0.000 0.518,0.000 6.154 " stroke="none" fill="#153425" fill-rule="evenodd"></path></g></svg>