<svg width="354" height="195" viewBox="0 0 354 195" xmlns="http://www.w3.org/2000/svg"><g fill="#666" fill-rule="evenodd"><path d="M128.36 70l-25.873-.026L75.6 70c-6.727 0-14.28 4.522-14.28 11.157v33.028c0 6.632 7.553 10.678 14.28 10.678h52.76c6.73 0 12.18-4.046 12.18-10.678V81.157c0-6.635-5.45-11.156-12.18-11.156m-32.55 40.137l-.156-25.15 17.37 12.683-17.214 12.467M176.124 107.492h-2.494V96.878l-9.194-14.025h3.122l7.318 11.624 7.318-11.624h3.12l-9.19 14.025v10.614"/><path d="M201.408 99.35c0 1.23-.214 2.365-.642 3.412-.427 1.04-1.023 1.946-1.786 2.71-.763.77-1.67 1.367-2.722 1.794-1.052.432-2.217.643-3.486.643-1.25 0-2.4-.213-3.45-.645-1.056-.427-1.96-1.024-2.724-1.793-.763-.765-1.358-1.67-1.786-2.71-.427-1.048-.64-2.182-.64-3.412s.213-2.368.64-3.412c.428-1.04 1.023-1.95 1.786-2.71.763-.767 1.668-1.364 2.723-1.797 1.054-.424 2.204-.64 3.453-.64 1.27 0 2.434.216 3.486.64 1.05.435 1.96 1.03 2.72 1.798.764.762 1.36 1.67 1.787 2.71.428 1.045.642 2.182.642 3.414zm-2.5 0c0-.906-.142-1.753-.43-2.54-.29-.79-.7-1.475-1.232-2.052-.532-.58-1.173-1.04-1.925-1.378-.75-.333-1.6-.504-2.547-.504-.95 0-1.8.17-2.55.504-.75.337-1.386.798-1.907 1.378-.52.577-.925 1.26-1.214 2.053-.288.788-.432 1.635-.432 2.54 0 .904.144 1.75.433 2.543.29.786.695 1.473 1.215 2.053.52.577 1.156 1.035 1.908 1.372.748.34 1.598.504 2.55.504.947 0 1.797-.164 2.548-.503.753-.338 1.394-.796 1.926-1.373.532-.58.942-1.267 1.23-2.053.29-.792.432-1.64.432-2.54zM218.16 107.492c-.046-.44-.075-.873-.087-1.305-.01-.427-.02-.864-.02-1.305h-.066c-.255.44-.58.85-.972 1.218-.393.374-.832.69-1.318.957-.485.27-1.002.475-1.543.63-.546.15-1.08.222-1.613.222-2.08 0-3.62-.553-4.61-1.65-.995-1.104-1.49-2.676-1.49-4.717v-10.34h2.287v9.017c0 .903.07 1.707.208 2.403.14.693.376 1.278.71 1.754.337.476.787.835 1.354 1.08.565.242 1.276.364 2.132.364.117 0 .44-.04.972-.137.532-.093 1.093-.348 1.682-.763.59-.42 1.116-1.048 1.578-1.883.463-.835.69-1.992.69-3.48v-8.352h2.293v12.702c0 .44.017 1 .052 1.67.034.676.074 1.31.12 1.915h-2.358M234.98 93.293h-4.684v9.605c0 .603.058 1.096.173 1.48.117.382.28.68.484.89.21.205.457.353.746.432.29.084.61.12.955.12.395 0 .8-.054 1.213-.17.417-.116.8-.267 1.145-.455l.104 2.126c-.853.396-1.882.59-3.084.59-.442 0-.9-.06-1.373-.174-.474-.116-.907-.336-1.297-.658-.396-.325-.717-.768-.975-1.322-.254-.56-.38-1.288-.38-2.196V93.292h-3.435v-2.088h3.434V86.61h2.29v4.594h4.684v2.088M250.693 107.492c-.05-.44-.076-.873-.087-1.305-.015-.427-.02-.864-.02-1.305h-.067c-.256.44-.58.85-.973 1.218-.396.374-.832.69-1.32.957-.484.27-1 .475-1.54.63-.548.15-1.082.222-1.614.222-2.08 0-3.622-.553-4.613-1.65-.993-1.104-1.493-2.676-1.493-4.717v-10.34h2.29v9.017c0 .903.07 1.707.21 2.403.14.693.376 1.278.71 1.754.336.476.787.835 1.353 1.08.564.242 1.275.364 2.133.364.113 0 .44-.04.972-.137.53-.093 1.092-.348 1.682-.763.586-.42 1.115-1.048 1.578-1.883.46-.835.69-1.992.69-3.48v-8.352h2.29v12.702c0 .44.02 1 .052 1.67.037.676.075 1.31.124 1.915h-2.356"/><path d="M259.118 81.183h2.29v12.74h.07c.368-.56.807-1.036 1.32-1.427.505-.395 1.036-.72 1.59-.975.556-.253 1.13-.44 1.72-.557.588-.116 1.15-.17 1.68-.17 1.272 0 2.434.213 3.486.64 1.052.432 1.96 1.03 2.725 1.795.76.762 1.354 1.67 1.782 2.71.427 1.045.64 2.182.64 3.414 0 1.23-.213 2.365-.64 3.412-.428 1.04-1.023 1.946-1.784 2.71-.766.77-1.674 1.367-2.726 1.794-1.052.432-2.214.643-3.486.643-.53 0-1.092-.06-1.68-.174-.59-.116-1.164-.298-1.72-.556-.554-.257-1.085-.58-1.59-.976-.513-.394-.952-.87-1.32-1.424h-.07v2.712h-2.29v-26.31zm14.81 18.168c0-.905-.145-1.752-.434-2.54-.29-.79-.7-1.474-1.232-2.05-.53-.58-1.173-1.04-1.924-1.38-.752-.332-1.602-.503-2.55-.503-.948 0-1.815.17-2.6.504-.787.338-1.47.8-2.047 1.38-.576.576-1.027 1.26-1.35 2.052-.325.787-.486 1.634-.486 2.54 0 .903.16 1.75.485 2.542.323.786.774 1.473 1.352 2.053.58.577 1.26 1.035 2.047 1.372.785.34 1.652.503 2.6.503.95 0 1.8-.164 2.55-.503.75-.337 1.393-.795 1.924-1.372.532-.58.943-1.267 1.232-2.053.29-.792.433-1.64.433-2.54zM282.77 99.978c.07.812.267 1.577.59 2.297.325.72.752 1.34 1.284 1.858.532.525 1.145.937 1.838 1.236.694.302 1.446.45 2.255.45 1.225 0 2.283-.28 3.173-.85.89-.57 1.567-1.226 2.03-1.966l1.768 1.462c-.97 1.227-2.04 2.108-3.208 2.645-1.168.53-2.422.798-3.763.798-1.203 0-2.318-.212-3.347-.644-1.03-.427-1.913-1.024-2.653-1.793-.74-.764-1.324-1.67-1.752-2.71-.428-1.047-.64-2.18-.64-3.41s.207-2.37.623-3.413c.416-1.04.994-1.95 1.734-2.71.74-.767 1.607-1.364 2.6-1.796.995-.426 2.07-.64 3.227-.64 1.223 0 2.32.22 3.293.658.97.443 1.786 1.028 2.445 1.76.658.73 1.16 1.588 1.507 2.572.347.986.52 2.035.52 3.15v1.046H282.77zm11.03-1.882c0-1.552-.462-2.813-1.387-3.776-.925-.963-2.22-1.444-3.884-1.444-.74 0-1.46.145-2.153.438-.693.287-1.3.675-1.82 1.163-.52.487-.937 1.046-1.25 1.67-.31.626-.467 1.28-.467 1.95h10.96z"/></g></svg>